Coordinates
version=1
nRows=24
nColumns=33
inDegrees=yes

Units are S.I. units (second, meters, Newtons, ...)
Angles are in degrees.

endheader
time	ground_thorax_rot_x	ground_thorax_rot_y	ground_thorax_rot_z	ground_thorax_tx	ground_thorax_ty	ground_thorax_tz	clav_prot_r	clav_elev_r	scapula_abduction_r	scapula_elevation_r	scapula_upward_rot_r	scapula_winging_r	shoulder_elv_r	plane_of_elev_r	axial_rot_r	elbow_flexion_r	pro_sup_r	wrist_flex_r	wrist_dev_r	clav_prot_l	clav_elev_l	scapula_abduction_l	scapula_elevation_l	scapula_upward_rot_l	scapula_winging_l	shoulder_elv_l	plane_of_elev_l	axial_rot_l	elbow_flexion_l	pro_sup_l	wrist_flex_l	wrist_dev_l	
0.8900	2.125374	-3.628820	12.093493	-0.121088	1.046378	0.005078	6.236841	1.697032	27.431152	-2.346975	27.462396	-12.078433	53.916098	33.081813	-27.086157	101.078498	53.732324	7.187716	0.365880	12.966610	-2.710121	-24.311997	-1.700788	1.514720	8.642181	63.199419	48.625715	17.336601	97.291713	24.022541	-18.303814	-23.322613	
0.9000	2.125115	-3.581699	12.169173	-0.121259	1.046410	0.004984	6.296767	1.572725	27.399314	-2.397607	27.268661	-12.032995	53.823204	32.805895	-27.000927	102.415614	53.975939	7.447354	-0.167066	12.996115	-2.827653	-24.267584	-1.686913	1.300951	8.580030	63.288273	48.638209	17.037669	98.121232	24.291349	-18.639201	-23.584759	
0.9100	2.128711	-3.537836	12.241611	-0.121419	1.046439	0.004886	6.357573	1.425859	27.362222	-2.463361	27.062472	-11.978908	53.709334	32.500602	-26.877205	103.738637	54.284143	7.765664	-0.791332	13.014032	-2.960596	-24.199141	-1.664867	1.075653	8.502244	63.339031	48.657153	16.709059	98.936586	24.590686	-18.977610	-23.841753	
0.9200	2.131601	-3.497314	12.314177	-0.121565	1.046465	0.004781	6.420996	1.256144	27.319017	-2.543223	26.838840	-11.915146	53.571405	32.161891	-26.718662	105.052518	54.646836	8.136842	-1.503513	13.020950	-3.109441	-24.107285	-1.634751	0.837529	8.409121	63.354897	48.679185	16.347539	99.737653	24.914091	-19.311729	-24.088757	
0.9300	2.142918	-3.460378	12.378269	-0.121689	1.046485	0.004674	6.483719	1.062838	27.267424	-2.638855	26.601947	-11.840897	53.424299	31.797840	-26.520374	106.352913	55.046672	8.554351	-2.287689	13.016200	-3.270653	-23.993298	-1.597332	0.592144	8.302164	63.333902	48.708582	15.969532	100.531953	25.244187	-19.627968	-24.315966	
0.9400	2.153873	-3.421653	12.446973	-0.121811	1.046501	0.004554	6.555832	0.848310	27.209004	-2.742812	26.331471	-11.756840	53.270218	31.398844	-26.293794	107.657781	55.454866	8.997832	-3.116320	13.010455	-3.450722	-23.870347	-1.551874	0.327001	8.185164	63.286476	48.739783	15.570213	101.310257	25.577670	-19.918558	-24.518858	
0.9500	2.180905	-3.386338	12.499330	-0.121912	1.046490	0.004442	6.629192	0.613603	27.139936	-2.857614	26.040589	-11.662038	53.133918	30.992373	-26.031528	108.954244	55.833831	9.449007	-3.948813	12.999628	-3.636726	-23.739218	-1.501878	0.060781	8.062403	63.216538	48.773307	15.183035	102.089164	25.902746	-20.176611	-24.686599	
0.9600	2.213765	-3.356874	12.543887	-0.122007	1.046472	0.004336	6.709397	0.350524	27.051407	-2.983111	25.704051	-11.550467	53.013467	30.588994	-25.744110	110.255320	56.111342	9.874915	-4.735652	12.986062	-3.832621	-23.601773	-1.446040	-0.211979	7.933110	63.138586	48.792225	14.799179	102.869013	26.224493	-20.383295	-24.803139	
0.9700	2.260670	-3.335090	12.574191	-0.122090	1.046440	0.004241	6.794673	0.060289	26.944946	-3.119703	25.327747	-11.422872	52.918972	30.196326	-25.425198	111.560162	56.265640	10.264584	-5.463299	12.970462	-4.036979	-23.461617	-1.383165	-0.485661	7.799331	63.050015	48.801069	14.429799	103.645824	26.579685	-20.560878	-24.872289	
0.9800	2.314671	-3.317563	12.612393	-0.122197	1.046450	0.004137	6.895186	-0.290985	26.831770	-3.291829	24.898321	-11.271292	52.841907	29.780248	-25.054892	112.869480	56.287449	10.637215	-6.197820	12.949045	-4.278612	-23.308231	-1.293634	-0.773392	7.647879	62.925583	48.795545	14.038385	104.396303	27.112009	-20.762979	-24.895115	
0.9900	2.377286	-3.310091	12.645809	-0.122313	1.046474	0.004027	7.005107	-0.691694	26.715869	-3.494924	24.435115	-11.100223	52.774382	29.343517	-24.627803	114.176423	56.187561	10.988024	-6.953855	12.915111	-4.534031	-23.139464	-1.187916	-1.051029	7.485458	62.764219	48.781496	13.640325	105.117016	27.815494	-21.010531	-24.886678	
1.0000	2.434319	-3.308701	12.690387	-0.122452	1.046532	0.003896	7.129448	-1.145624	26.593255	-3.727075	23.920541	-10.906486	52.698625	28.869228	-24.150911	115.488293	55.951051	11.308367	-7.745711	12.869026	-4.802054	-22.952378	-1.070173	-1.326052	7.310715	62.565058	48.755214	13.214172	105.799411	28.654487	-21.280509	-24.848831	
1.0100	2.485656	-3.312317	12.732719	-0.122583	1.046579	0.003748	7.258965	-1.635714	26.452464	-3.976393	23.362753	-10.690213	52.628287	28.367203	-23.636427	116.799045	55.549171	11.567545	-8.550358	12.811125	-5.055558	-22.752287	-0.958021	-1.584077	7.134531	62.334679	48.731442	12.776031	106.447481	29.486546	-21.510421	-24.787139	
1.0200	2.527464	-3.314243	12.780859	-0.122716	1.046636	0.003577	7.396885	-2.173073	26.294373	-4.249579	22.753424	-10.447217	52.566354	27.820564	-23.086122	118.098014	55.001334	11.782517	-9.427343	12.741217	-5.300913	-22.536471	-0.848326	-1.830816	6.953622	62.067726	48.707800	12.310059	107.060251	30.281650	-21.678834	-24.708969	
1.0300	2.561632	-3.318421	12.813194	-0.122820	1.046651	0.003402	7.535441	-2.728082	26.109231	-4.524127	22.100929	-10.182964	52.516016	27.260817	-22.522214	119.374838	54.294528	11.921658	-10.404570	12.661881	-5.510528	-22.316457	-0.756813	-2.046515	6.781907	61.785405	48.687577	11.845135	107.651693	30.904576	-21.738684	-24.627765	
1.0400	2.586767	-3.323129	12.836354	-0.122904	1.046666	0.003220	7.681814	-3.334324	25.904913	-4.825264	21.394938	-9.886382	52.500871	26.668628	-21.941798	120.606259	53.436893	12.020053	-11.606177	12.571697	-5.702162	-22.086882	-0.671393	-2.239531	6.611564	61.476211	48.662213	11.355828	108.221554	31.374099	-21.682790	-24.550450	
1.0500	2.614484	-3.329839	12.839508	-0.122946	1.046666	0.003039	7.819925	-3.984451	25.668879	-5.152741	20.655981	-9.554565	52.529364	26.079835	-21.324201	121.764836	52.285801	11.996320	-13.340501	12.465065	-5.873865	-21.844205	-0.587861	-2.396045	6.442481	61.113675	48.638726	10.836524	108.774106	31.727364	-21.523778	-24.482562	
1.0600	2.649954	-3.334187	12.837203	-0.122977	1.046693	0.002861	7.961906	-4.701915	25.411484	-5.520189	19.865257	-9.182063	52.625311	25.479009	-20.676745	122.843503	51.014969	11.995688	-15.574485	12.348897	-6.054574	-21.593417	-0.488978	-2.535491	6.267607	60.706132	48.602705	10.282803	109.299876	32.069412	-21.332860	-24.439472	
1.0700	2.695972	-3.336285	12.826958	-0.122989	1.046700	0.002706	8.108218	-5.417441	25.133253	-5.870166	19.029092	-8.796896	52.744231	24.898547	-20.035043	123.868108	49.733596	12.030778	-18.103530	12.234606	-6.228587	-21.351461	-0.390180	-2.661979	6.099072	60.297815	48.555007	9.733476	109.801137	32.380307	-21.151751	-24.430829	
1.0800	2.748514	-3.335070	12.821509	-0.123005	1.046710	0.002573	8.283410	-6.145242	24.859135	-6.205878	18.120849	-8.402186	52.912058	24.301361	-19.449507	124.857626	48.693352	12.284433	-20.484205	12.129982	-6.410277	-21.120042	-0.290855	-2.804009	5.932009	59.925605	48.491732	9.198741	110.267720	32.660395	-21.011688	-24.459004	
1.0900	2.815913	-3.326041	12.819889	-0.123007	1.046680	0.002466	8.482019	-6.820524	24.596758	-6.480258	17.169842	-8.028824	53.077944	23.702575	-18.939088	125.832663	47.865422	12.672391	-22.526173	12.038309	-6.590484	-20.901684	-0.201777	-2.967731	5.770234	59.599129	48.429026	8.697029	110.703730	32.916788	-20.929965	-24.511710	
1.1000	2.895443	-3.306994	12.827611	-0.123009	1.046630	0.002385	8.721482	-7.450164	24.372833	-6.696752	16.170233	-7.684952	53.252994	23.064856	-18.545111	126.805440	47.414395	13.314078	-23.895548	11.963936	-6.780570	-20.697651	-0.119596	-3.168826	5.609983	59.339532	48.365021	8.232723	111.107393	33.146496	-20.913752	-24.587258	
1.1100	2.989143	-3.280385	12.831128	-0.122983	1.046528	0.002332	8.994168	-7.995723	24.200338	-6.834890	15.162950	-7.392542	53.397882	22.397592	-18.273833	127.774246	47.214965	14.089289	-24.597965	11.897901	-6.964710	-20.499756	-0.050449	-3.388611	5.453236	59.137409	48.310743	7.810581	111.491589	33.352497	-20.946646	-24.674358	
1.1200	3.090635	-3.255288	12.822594	-0.122925	1.046419	0.002293	9.306210	-8.515926	24.098223	-6.946320	14.153829	-7.135874	53.563266	21.679870	-18.131435	128.696440	47.128030	15.120292	-24.789739	11.815062	-7.143963	-20.273245	0.014776	-3.607463	5.285587	58.941896	48.272116	7.385276	111.861388	33.572880	-21.001659	-24.758028	
